<?xml version="1.0" standalone="no"?><!DOCTYPE svg PUBLIC "-//W3C//DTD SVG 1.1//EN" "http://www.w3.org/Graphics/SVG/1.1/DTD/svg11.dtd"><svg class="icon" width="32px" height="32.00px" viewBox="0 0 1024 1024" version="1.1" xmlns="http://www.w3.org/2000/svg"><path d="M828.3 784.6L556.1 512.4l271.6-271.6c0.3-0.2 0.5-0.5 0.7-0.7 11.5-11.9 11.2-30.9-0.7-42.4-11.9-11.5-30.9-11.2-42.4 0.7L513.7 470 241.4 197.7c-11.7-11.7-30.7-11.7-42.4 0s-11.7 30.7 0 42.4l272.3 272.3-272.9 272.9c-5.6 5.6-8.8 13.3-8.8 21.2 0 16.6 13.4 30 30 30 8 0 15.6-3.2 21.2-8.8l272.9-272.9L785.9 827c5.6 5.6 13.3 8.8 21.2 8.8 8 0 15.6-3.2 21.2-8.8 11.7-11.7 11.7-30.7 0-42.4z" fill="#ffffff" /></svg>