<?xml version="1.0" standalone="no"?><!DOCTYPE svg PUBLIC "-//W3C//DTD SVG 1.1//EN" "http://www.w3.org/Graphics/SVG/1.1/DTD/svg11.dtd"><svg class="icon" width="40px" height="40.00px" viewBox="0 0 1024 1024" version="1.1" xmlns="http://www.w3.org/2000/svg"><path d="M928.891803 415.759306c-4.862772-14.704022-18.294016-25.021413-35.998232-27.56697L655.722604 354.079209 549.658066 141.429964c-7.909044-15.885669-21.976165-25.384918-37.634515-25.384918s-29.737759 9.499249-37.634515 25.362391L368.313235 354.079209 131.141244 388.192336c-17.726743 2.545557-31.180514 12.862948-36.009496 27.589497-4.841269 14.726549-0.057342 30.908142 12.738025 43.247848L279.510565 624.578952l-40.52105 233.762214c-2.420634 13.95551 0.670692 26.818458 8.693395 36.226574 7.260879 8.545945 18.055434 13.409741 29.6241 13.409741 7.499461 0 15.090054-1.95371 22.578252-5.864202L512.023551 791.754266l212.127027 110.359013c19.022049 9.907808 40.226151 6.500079 52.202352-7.545539 8.043182-9.408117 11.089454-22.271065 8.682131-36.226574l-40.498523-233.762214L916.165041 459.029681C928.982935 446.643897 933.710544 430.485856 928.891803 415.759306zM690.719406 592.580296c-7.13698 6.909662-10.409547 16.81747-8.726162 26.591139l36.77132 212.263213-192.607334-100.221839c-8.861324-4.635453-19.408081-4.635453-28.270429 0l-192.627814 100.221839 36.793847-212.263213c1.692601-9.77367-1.568702-19.681477-8.726162-26.591139l-155.846254-150.32303 215.365803-30.975723c9.885281-1.431492 18.431226-7.568066 22.862912-16.431438l96.314419-193.104978 96.315443 193.104978c4.430662 8.863372 12.976607 14.998922 22.861888 16.431438l215.37809 30.975723L690.719406 592.580296z" fill="#fb2d2d" /></svg>