<?xml version="1.0" standalone="no"?><!DOCTYPE svg PUBLIC "-//W3C//DTD SVG 1.1//EN" "http://www.w3.org/Graphics/SVG/1.1/DTD/svg11.dtd"><svg class="icon" width="32px" height="32.00px" viewBox="0 0 1024 1024" version="1.1" xmlns="http://www.w3.org/2000/svg"><path d="M654.222222 529.066667C739.555556 477.866667 796.444444 386.844444 796.444444 284.444444c0-159.288889-125.155556-284.444444-284.444444-284.444444S227.555556 125.155556 227.555556 284.444444c0 102.4 56.888889 193.422222 142.222222 244.622223C170.666667 585.955556 17.066667 762.311111 0 978.488889c5.688889 28.444444 28.444444 45.511111 56.888889 45.511111s56.888889-28.444444 56.888889-56.888889c0-187.733333 176.355556-341.333333 398.222222-341.333333s398.222222 153.6 398.222222 341.333333c0 28.444444 28.444444 56.888889 56.888889 56.888889s51.2-17.066667 56.888889-45.511111c-17.066667-210.488889-170.666667-392.533333-369.777778-449.422222zM341.333333 284.444444c0-96.711111 79.644444-170.666667 170.666667-170.666666 96.711111 0 170.666667 73.955556 170.666667 170.666666 0 91.022222-73.955556 170.666667-170.666667 170.666667-91.022222 0-170.666667-79.644444-170.666667-170.666667z" fill="#342158" /></svg>