<?xml version="1.0" standalone="no"?><!DOCTYPE svg PUBLIC "-//W3C//DTD SVG 1.1//EN" "http://www.w3.org/Graphics/SVG/1.1/DTD/svg11.dtd"><svg class="icon" width="32px" height="32.00px" viewBox="0 0 1024 1024" version="1.1" xmlns="http://www.w3.org/2000/svg"><path d="M430.4 340.608c-18.24 0-33.088 12.736-33.088 28.544v285.696c0 15.744 14.784 28.544 33.088 28.544 18.24 0 33.024-12.8 33.024-28.544V369.152c0-15.808-14.848-28.544-33.024-28.544zM594.624 340.608c-18.24 0-33.024 12.736-33.024 28.544v285.696c0 15.744 14.72 28.544 33.024 28.544s33.088-12.8 33.088-28.544V369.152c0-15.808-14.848-28.544-33.088-28.544z"  /><path d="M512.512 65.984C266.56 65.984 66.496 266.048 66.496 512s200.064 446.016 446.016 446.016S958.528 757.952 958.528 512s-200.064-446.016-446.016-446.016z m0 828.032c-210.624 0-382.016-171.392-382.016-382.016s171.392-382.016 382.016-382.016S894.528 301.376 894.528 512s-171.392 382.016-382.016 382.016z"  /></svg>