<svg id="图层_1" data-name="图层 1" xmlns="http://www.w3.org/2000/svg" viewBox="0 0 29.67 29.67"><defs><style>.cls-1{fill:#342158;}</style></defs><title>play</title><path class="cls-1" d="M16.16,1.13A14.83,14.83,0,1,0,31,16,14.83,14.83,0,0,0,16.16,1.13h0Zm0,28.18A13.35,13.35,0,1,1,29.51,16,13.35,13.35,0,0,1,16.16,29.31h0Zm6.73-14.4C20.59,13.34,16.4,11,14,9.53c-1-.62-1.8-0.37-1.88.72-0.06,2.92,0,8.54,0,11.5,0,1.1,1,1.25,1.87.81l8.87-5.37a1.24,1.24,0,0,0,0-2.28h0Z" transform="translate(-1.33 -1.13)"/></svg>