<?xml version="1.0" standalone="no"?><!DOCTYPE svg PUBLIC "-//W3C//DTD SVG 1.1//EN" "http://www.w3.org/Graphics/SVG/1.1/DTD/svg11.dtd"><svg class="icon" width="70px" height="70.00px" viewBox="0 0 1024 1024" version="1.1" xmlns="http://www.w3.org/2000/svg"><path d="M512 640c115.2 0 208-92.8 208-208V272c0-115.2-92.8-208-208-208s-208 92.8-208 208v160c0 115.2 92.8 208 208 208zM368 272c0-80 64-144 144-144s144 64 144 144v160c0 80-64 144-144 144s-144-64-144-144V272z" fill="#342158" /><path d="M844.8 480c0-17.6-14.4-32-32-32-16 0-30.4 12.8-32 28.8C758.4 606.4 646.4 704 512 704s-246.4-97.6-268.8-227.2c-1.6-16-16-28.8-32-28.8-17.6 0-32 14.4-32 32v4.8C204.8 635.2 328 752 480 766.4V928c0 17.6 14.4 32 32 32s32-14.4 32-32V766.4c152-14.4 275.2-131.2 299.2-280 0-1.6 1.6-4.8 1.6-6.4z" fill="#342158" /></svg>