<?xml version="1.0" standalone="no"?><!DOCTYPE svg PUBLIC "-//W3C//DTD SVG 1.1//EN" "http://www.w3.org/Graphics/SVG/1.1/DTD/svg11.dtd"><svg class="icon" width="16px" height="16.00px" viewBox="0 0 1024 1024" version="1.1" xmlns="http://www.w3.org/2000/svg"><path d="M844.8 89.6H179.2A115.328 115.328 0 0 0 64 204.8v454.9376c0 63.5136 51.6864 115.2 115.2 115.2h352l180.2752 180.2752c7.5008 7.5008 17.3312 11.2384 27.1616 11.2384s19.6608-3.7376 27.1616-11.2384a38.4 38.4 0 0 0 0-54.2976l-184.0128-184.0128a63.616 63.616 0 0 0-45.312-18.7648H179.2c-21.1712 0-38.4-17.2288-38.4-38.4V204.8c0-21.1712 17.2288-38.4 38.4-38.4h665.6c21.1712 0 38.4 17.2288 38.4 38.4v454.9376c0 21.1712-17.2288 38.4-38.4 38.4h-87.0144a38.4 38.4 0 1 0 0 76.8H844.8c63.5136 0 115.2-51.6864 115.2-115.2V204.8c0-63.5136-51.6864-115.2-115.2-115.2z" fill="#342158" /><path d="M307.2 375.8592h409.6a25.6 25.6 0 0 0 0-51.2H307.2a25.6 25.6 0 0 0 0 51.2zM307.2 534.8352h409.6a25.6 25.6 0 0 0 0-51.2H307.2a25.6 25.6 0 0 0 0 51.2z" fill="#342158" /></svg>